<svg id="Calque_1" data-name="Calque 1" xmlns="http://www.w3.org/2000/svg" viewBox="0 0 439.56 550.15"><defs><style>.cls-1{fill:#fff;stroke-width:46px;}.cls-1,.cls-2{stroke:#282525;stroke-miterlimit:10;}.cls-2{fill:#ed2229;stroke-width:45px;}.cls-3{fill:#282525;}</style></defs><polyline class="cls-1" points="22.59 8.36 93.59 190.36 212.59 366.36 354.59 535.36"/><path class="cls-2" d="M493,184,304,435S216,548,194,565,89,686,89,686" transform="translate(-71.41 -156.64)"/><path class="cls-3" d="M399,312.5c3.22,0,3.22-5,0-5s-3.22,5,0,5Z" transform="translate(-71.41 -156.64)"/><path class="cls-3" d="M142,329.5c3.22,0,3.22-5,0-5s-3.22,5,0,5Z" transform="translate(-71.41 -156.64)"/><path class="cls-3" d="M145.05,332.84a156.34,156.34,0,0,0,25.41,47.75,2.53,2.53,0,0,0,3.54,0,2.57,2.57,0,0,0,0-3.54,149.26,149.26,0,0,1-24.13-45.54c-1-3.05-5.82-1.74-4.82,1.33Z" transform="translate(-71.41 -156.64)"/></svg>